# xmcd
#
# Track frame offsets:
#	150
#	15944
#	40152
#	54509
#	74665
#	90125
#	109196
#	136345
#	160496
#	181059
#	204047
#	217618
#	239929
#	260768
#	287382
#	303082
#	319512
#	332420
#
# Disc length: 4587 seconds
#
# Revision: 0
# Processed by: cddbd v1.5.2PL0 Copyright (c) Steve Scherf et al.
# Submitted via: audiograbber 1.83.01
#
DISCID=ea11e912
DTITLE=Various Artist - THE CHAMPIONS OF R&B
DYEAR=2007
DGENRE=Blues
TTITLE0=Roscoe Shelton - She's The One
TTITLE1=Roscoe Shelton - Run And Hide
TTITLE2=James Nixon - One More Chance
TTITLE3=James Nixon - No End To The Blues
TTITLE4=Freddie Waters - My Mistakes
TTITLE5=Freddie Waters - It Tears Me Up
TTITLE6=Charles Walker - The Monkey Song
TTITLE7=Charles Walker - We Got A Secret
TTITLE8=Larry LaDon - Shoulda Been You
TTITLE9=Larry LaDon - Living On Borrowed Time
TTITLE10=Johnny Jones - No More One More Chance
TTITLE11=Johnny Jones - Girlfriend Blues
TTITLE12=Earl Gaines - The Door Is Still Open
TTITLE13=Earl Gaines - A Fool's Advice
TTITLE14=Clifford Curry - Baby Kiss Me Again
TTITLE15=Al Garner - Gonna Stop My Drinkin'
TTITLE16=Al Garner - Leavin' Tennessee
TTITLE17=Herbert Hunter - I'm Going Home
EXTD=
EXTT0=
EXTT1=
EXTT2=
EXTT3=
EXTT4=
EXTT5=
EXTT6=
EXTT7=
EXTT8=
EXTT9=
EXTT10=
EXTT11=
EXTT12=
EXTT13=
EXTT14=
EXTT15=
EXTT16=
EXTT17=
PLAYORDER=
